# Blender v3.1.2 OBJ File: ''
# www.blender.org
mtllib arrowSS.mtl
o Box.002
v 0.606274 0.032662 -1.157460
v 0.654823 0.092050 1.198644
v -0.847184 0.064044 1.230305
v -0.895739 0.004662 -1.125798
v -1.040349 7.482457 -1.372362
v -0.991801 7.541846 0.983741
v 0.510212 7.569845 0.952079
v 0.461665 7.510457 -1.404024
v 0.449375 7.173143 -2.534968
v 0.510746 7.355442 2.187920
v -0.991261 7.327019 2.208539
v -1.052631 7.144718 -2.514359
v -1.094691 10.974031 -0.298704
v 0.407315 11.002457 -0.319313
vt 0.000000 1.000000
vt 0.000000 0.000000
vt 1.000000 0.000000
vt 1.000000 1.000000
vt 0.000000 1.000000
vt 0.000000 0.000000
vt 1.000000 0.000000
vt 1.000000 1.000000
vt 0.000000 0.000000
vt 1.000000 0.000000
vt 0.000000 1.000000
vt 1.000000 1.000000
vt 0.000000 1.000000
vt 0.000000 0.000000
vt 1.000000 0.000000
vt 1.000000 1.000000
vt 0.000000 1.000000
vt 0.000000 0.000000
vt 1.000000 0.000000
vt 1.000000 1.000000
vt 0.000000 1.000000
vt 0.000000 0.000000
vt 1.000000 0.000000
vt 1.000000 1.000000
vt 0.000000 0.000000
vt 1.000000 0.000000
vt 1.000000 1.000000
vt 0.000000 1.000000
vt 1.000000 0.000000
vt 1.000000 1.000000
vt 0.000000 1.000000
vt 0.000000 0.000000
vt 0.000000 1.000000
vt 1.000000 0.000000
vt 1.000000 1.000000
vn 0.0192 -0.9995 0.0248
vn -0.0192 0.9995 -0.0248
vn -0.0204 -0.0333 -0.9992
vn 0.0204 0.0333 0.9992
vn 0.9996 0.0186 -0.0211
vn -0.9996 -0.0186 0.0211
vn 0.0194 -0.9991 0.0383
vn -0.0213 0.5005 -0.8655
vn 0.0006 0.5665 0.8240
vn -0.9997 -0.0189 0.0137
vn 0.9997 0.0189 -0.0137
usemtl Material.001
s 1
f 1/1/1 2/2/1 3/3/1 4/4/1
f 5/5/2 6/6/2 7/7/2 8/8/2
f 5/5/3 8/9/3 1/10/3 4/4/3
f 7/11/4 6/6/4 3/3/4 2/12/4
f 8/13/5 7/14/5 2/15/5 1/16/5
f 4/17/6 3/18/6 6/19/6 5/20/6
f 9/21/7 10/22/7 11/23/7 12/24/7
f 9/21/8 12/25/8 13/26/8 14/27/8
f 11/28/9 10/22/9 14/29/9 13/30/9
f 12/31/10 11/32/10 13/26/10
f 14/33/11 10/34/11 9/35/11
