# Blender v3.1.2 OBJ File: ''
# www.blender.org
mtllib arrowDown.mtl
o Box.001
v -0.606601 11.318221 -1.157460
v -0.655811 11.259380 1.198644
v 0.846415 11.270596 1.230305
v 0.895631 11.329431 -1.125798
v 0.956648 3.850486 -1.372361
v 0.907439 3.791644 0.983742
v -0.594793 3.780436 0.952080
v -0.545585 3.839277 -1.404023
v -0.529526 4.176433 -2.534967
v -0.592931 3.994832 2.187921
v 0.909300 4.006464 2.208540
v 0.972704 4.188066 -2.514358
v 0.971959 0.358523 -0.298702
v -0.530271 0.346889 -0.319311
vt 0.000000 1.000000
vt 0.000000 0.000000
vt 1.000000 0.000000
vt 1.000000 1.000000
vt 0.000000 1.000000
vt 0.000000 0.000000
vt 1.000000 0.000000
vt 1.000000 1.000000
vt 0.000000 0.000000
vt 1.000000 0.000000
vt 0.000000 1.000000
vt 1.000000 1.000000
vt 0.000000 1.000000
vt 0.000000 0.000000
vt 1.000000 0.000000
vt 1.000000 1.000000
vt 0.000000 1.000000
vt 0.000000 0.000000
vt 1.000000 0.000000
vt 1.000000 1.000000
vt 0.000000 1.000000
vt 0.000000 0.000000
vt 1.000000 0.000000
vt 1.000000 1.000000
vt 0.000000 0.000000
vt 1.000000 0.000000
vt 1.000000 1.000000
vt 0.000000 1.000000
vt 1.000000 0.000000
vt 1.000000 1.000000
vt 0.000000 1.000000
vt 0.000000 0.000000
vt 0.000000 1.000000
vt 1.000000 0.000000
vt 1.000000 1.000000
vn -0.0080 0.9997 0.0248
vn 0.0080 -0.9997 -0.0248
vn 0.0208 0.0331 -0.9992
vn -0.0208 -0.0331 0.9992
vn -0.9998 -0.0075 -0.0211
vn 0.9998 0.0075 0.0211
vn -0.0083 0.9992 0.0383
vn 0.0158 -0.5007 -0.8655
vn -0.0069 -0.5665 0.8240
vn 0.9999 0.0077 0.0137
vn -0.9999 -0.0077 -0.0137
usemtl Material.002
s 1
f 1/1/1 2/2/1 3/3/1 4/4/1
f 5/5/2 6/6/2 7/7/2 8/8/2
f 5/5/3 8/9/3 1/10/3 4/4/3
f 7/11/4 6/6/4 3/3/4 2/12/4
f 8/13/5 7/14/5 2/15/5 1/16/5
f 4/17/6 3/18/6 6/19/6 5/20/6
f 9/21/7 10/22/7 11/23/7 12/24/7
f 9/21/8 12/25/8 13/26/8 14/27/8
f 11/28/9 10/22/9 14/29/9 13/30/9
f 12/31/10 11/32/10 13/26/10
f 14/33/11 10/34/11 9/35/11
